Simulation
nRows=23
nColumns=15
endheader
time  TH_x TH_y TH_z SC_y  SC_z  SC_x  AC_y  AC_z  AC_x  GH_y  GH_z  GH_yy  EL_x  PS_y
0.0  0.000000  0.000000  0.000000  -22.376613982003768  7.687363314283027  17.273194002386624  57.07410644242237  10.10010441774319  3.350758357116416  40.66406556075351  59.32137256110405  -42.90213576948495  21.277312899466665  120.000000
0.04052287581699346  0.000000  0.000000  0.000000  -22.391297923676074  7.826362038242277  17.76824121324761  57.29457665895061  10.153450954154412  3.8291459157219405  40.49631511500004  59.995467484221116  -44.14050101153994  23.39753235676716  120.000000
0.08104575163398692  0.000000  0.000000  0.000000  -22.464883072597754  7.853406091838294  17.849311831170716  57.521892292337284  10.059929765604702  3.970851355280024  40.28177709837967  60.22013795654201  -45.292688530389974  25.281848789708956  120.000000
0.12156862745098038  0.000000  0.000000  0.000000  -22.494646753598367  7.7454367535967155  17.662973072467736  57.720157226334  9.975723431071144  3.906508377616947  40.048681747830145  60.10240608529088  -46.32235826427428  26.856695816186594  120.000000
0.16209150326797384  0.000000  0.000000  0.000000  -22.48962212923434  7.533763949770853  17.3147944843612  57.894254087468674  9.962902767525991  3.7459957411326856  39.85748518648865  59.7640672053154  -47.21262424150624  28.119501718877427  120.000000
0.2026143790849673  0.000000  0.000000  0.000000  -22.448035857189733  7.26189565270923  16.889679300510412  58.03754202232606  10.041149552537389  3.5639595594513946  39.734882713807345  59.321674806803244  -47.9567841104696  29.08444230583999  120.000000
0.24313725490196075  0.000000  0.000000  0.000000  -22.39354681314106  6.985958912052517  16.447374781182663  58.14666205125927  10.192953348253644  3.4108196419657433  39.691809502911994  58.8691694350537  -48.55536889321612  29.77928721736976  120.000000
0.28366013071895424  0.000000  0.000000  0.000000  -22.34441243159876  6.744307882633967  16.02310604199784  58.21942279949659  10.391388777596434  3.3082072491395285  39.71648438403474  58.47175130211502  -49.00848925105785  30.234876967012426  120.000000
0.32418300653594767  0.000000  0.000000  0.000000  -22.3045216374775  6.560352012725911  15.63608525544605  58.252536636755195  10.610072558921754  3.263065642338286  39.78621207723339  58.16373478374708  -49.31452335318213  30.47432960192614  120.000000
0.3647058823529411  0.000000  0.000000  0.000000  -22.27090390283045  6.442916836586067  15.295269033924725  58.24692622828155  10.828547529147874  3.2735417298027794  39.87773975251428  57.95770018220754  -49.470297595248866  30.516824670076048  120.000000
0.4052287581699346  0.000000  0.000000  0.000000  -22.2370654157176  6.389555970670871  15.004721208867617  58.20628271091515  11.034691364280546  3.332810408031418  39.97087871881533  57.852197390401145  -49.4713952597615  30.380540316356935  120.000000
0.4457516339869281  0.000000  0.000000  0.000000  -22.198424329113426  6.393150986238564  14.768024321639807  58.136475025458246  11.22198418557796  3.4329005351375894  40.05041756430722  57.83875547353  -49.313375446891335  30.082370539701223  120.000000
0.4862745098039215  0.000000  0.000000  0.000000  -22.154146737074075  6.444067193098067  14.59024568588154  58.04486196156365  11.387571534169702  3.565258465221005  40.10514198808892  57.90722825880471  -48.99234062888839  29.639661132147133  120.000000
0.5267973856209149  0.000000  0.000000  0.000000  -22.107215910429076  6.533128912013486  14.477031712391923  57.93935890232619  11.531333128518476  3.723136376947753  40.126871429990324  58.04819642287324  -48.50546536467895  29.070132322452444  120.000000
0.5673202614379085  0.000000  0.000000  0.000000  -22.063297668182514  6.652694428797812  14.433725800973384  57.827935026927946  11.654450879148934  3.902210043843165  40.10984563940305  58.254719426971604  -47.85100425206499  28.39164803072242  120.000000
0.6078431372549019  0.000000  0.000000  0.000000  -22.02917679999596  6.79705260362939  14.465409272134341  57.718578065225834  11.757744369405318  4.100454783806852  40.050356372167435  58.522236866733635  -47.028901574825305  27.62230751400797  120.000000
0.6483660130718953  0.000000  0.000000  0.000000  -22.011306149884565  6.962792071754533  14.575937655678386  57.618942741970336  11.84067239063714  4.318165468990427  39.94714573094952  58.84863693095586  -46.04109483413865  26.77974495273085  120.000000
0.6888888888888888  0.000000  0.000000  0.000000  -22.015091991157842  7.148932319867645  14.76736971570204  57.53621142988783  11.900931383927423  4.55806404916781  39.80167319032404  59.23349287942827  -44.89206102657943  25.88104188033838  120.000000
0.7294117647058822  0.000000  0.000000  0.000000  -22.04443814528762  7.356843403780581  15.039366850507548  57.477076701851175  11.934431082582503  4.824980630091081  39.618692674358456  59.67783017628343  -43.58913276128958  24.942472223121307  120.000000
0.7699346405228757  0.000000  0.000000  0.000000  -22.101216240138626  7.590062681079471  15.38902194873227  57.447574173691606  11.935965786982317  5.1258250032475114  39.40623732807403  60.18288958424089  -42.1424014493478  23.979447487892458  120.000000
0.8104575163398692  0.000000  0.000000  0.000000  -22.185657080406184  7.8533175281988115  15.810918152010988  57.45339572082779  11.90041484751173  5.468770162195006  39.17554707783158  60.749367048607624  -40.564565309146  23.006734389654028  120.000000
0.8509803921568626  0.000000  0.000000  0.000000  -22.297287930036067  8.151730508918524  16.29758911600804  57.499770546695935  11.823779713655577  5.8627779119333185  38.94039432201404  61.37631776527027  -38.87070251636516  22.039040940657426  120.000000
0.8915032679738562  0.000000  0.000000  0.000000  -22.435197835096517  8.490142983507406  16.839940261968742  57.59112648525481  11.704045011967972  6.316519801589724  38.71623646885978  62.06060662714043  -37.07895471488652  21.09092033271196  120.000000
